<?xml version="1.0" encoding="UTF-8"?>
<svg width="134px" height="150px" viewBox="0 0 134 150" version="1.1" xmlns="http://www.w3.org/2000/svg" xmlns:xlink="http://www.w3.org/1999/xlink">
    <title>logos/alpenhof</title>
    <g id="logos/alpenhof" stroke="none" stroke-width="1" fill="none" fill-rule="evenodd">
        <g id="Alpenhof" transform="translate(1.000000, 0.000000)" fill-rule="nonzero">
            <path d="M65.7613967,149.960321 L62.7722423,147.513447 C59.3333921,144.709461 55.7490521,142.024513 51.8076007,139.313112 C48.2893925,136.879464 42.3375364,133.45384 37.099903,130.425007 C34.4017282,128.864298 31.8622696,127.396173 29.931223,126.232255 C28.6482673,125.4519 27.3520854,124.697998 26.1088087,123.983776 C22.0086412,121.603033 18.1333216,119.354554 15.2102989,116.550569 C7.90935544,109.580284 3.17432325,95.7984305 3.95467772,83.7756812 C4.27211004,78.8687065 5.26408606,73.2607354 6.30896746,67.3221056 L6.30896746,67.2559739 C7.59192311,60.0079358 8.9145578,52.5085971 9.08650031,45.868971 C9.36425359,35.6053258 2.88334362,27.6695177 2.81721189,27.5901596 L0,24.2571202 L17.9746054,0.0529053875 L21.3870029,1.44167181 C25.7649237,3.13464421 40.7106957,6.36187285 65.8010757,6.36187285 C90.8914558,6.36187285 106.101755,3.17432325 110.109338,1.4945772 L113.548188,0 L115.889251,3.10819152 L131.615378,24.2835729 L128.798166,27.6298386 C128.798166,27.6298386 122.251124,35.7111366 122.528878,45.8954237 C122.714046,52.5615025 124.036681,60.0740675 125.30641,67.335332 C126.351292,73.2871881 127.343268,78.8951592 127.6607,83.8021339 C128.454281,95.8116568 123.719249,109.59351 116.405079,116.577021 C113.46883,119.367781 109.59351,121.629486 105.493343,124.010228 C104.250066,124.737677 102.953884,125.478353 101.684155,126.258707 C99.7663345,127.422626 97.2136496,128.89075 94.5287012,130.438233 C89.3836522,133.400935 83.5376069,136.760427 80.0855304,139.154396 C76.3557006,141.733533 72.9829821,144.259765 68.7902301,147.592805 L65.774623,150 L65.7613967,149.960321 Z" id="Path" fill="#FFFFFF"></path>
            <path d="M114.30209,46.1202716 C114.500485,53.4873468 115.889251,61.3570232 117.225112,68.9621726 C118.230315,74.6362755 119.169385,80.0061723 119.460365,84.3973195 C119.566176,85.944802 119.526497,87.5319637 119.40746,89.1323516 L12.1946918,89.1323516 C12.0756547,87.5319637 12.0359757,85.944802 12.1417864,84.3973195 C12.4327661,80.0061723 13.3718367,74.6362755 14.3770391,68.9621726 C15.7129001,61.3570232 17.1016665,53.5005731 17.3000617,46.1334979 C17.577815,36.0550216 13.2395732,27.947271 10.6868883,24.0851777 L20.7389119,10.5149458 C25.7913764,12.0227493 39.6393616,15.249978 65.7878494,15.249978 C91.9363372,15.249978 105.903359,12.1021074 110.86324,10.5546248 L120.902037,24.0719513 C118.349352,27.947271 114.01111,36.0417953 114.288863,46.1202716 M127.158099,24.1248567 L113.085266,5.17150163 L112.410722,4.27211004 L111.471652,4.6821268 C111.352614,4.73503218 99.2769597,9.84040208 65.7878494,9.84040208 C32.2987391,9.84040208 20.2230844,4.72180584 20.0908209,4.66890045 L19.1649766,4.28533639 L4.43082621,24.1248567 L5.47570761,25.354907 C5.77991359,25.7252447 12.8824619,34.3488229 12.5650295,45.9615554 C12.3798607,52.8657085 11.0439996,60.4973106 9.73459131,67.8643859 L9.73459131,67.9040649 C8.70293625,73.7633366 7.72418658,79.2787232 7.4199806,84.0005291 C6.69253152,95.0709814 10.9778679,107.702143 17.6042677,114.024336 C20.2363107,116.537342 23.9396879,118.680011 27.8546865,120.954942 C29.1244158,121.695618 30.4205978,122.449519 31.7300062,123.2431 C33.6213738,124.393792 36.1608324,125.848691 38.8325544,127.396173 C44.1363195,130.451459 50.141081,133.929989 53.7783264,136.429768 C57.7991359,139.207301 61.462834,141.945155 64.9678159,144.802046 L65.7878494,145.463363 L66.6078829,144.815272 C70.8535403,141.416101 74.2923904,138.85019 78.088352,136.231373 C81.6594657,133.771272 87.5584164,130.372101 92.769597,127.36972 C95.4413191,125.822238 97.9675514,124.380566 99.858919,123.229874 C101.168327,122.436293 102.464509,121.682391 103.721012,120.954942 C107.649237,118.680011 111.352614,116.524116 113.984657,114.01111 C120.611057,107.688916 124.896394,95.057755 124.168945,83.9873027 C123.864739,79.2654969 122.885989,73.7501102 121.86756,67.9172912 C120.558152,60.510537 119.222291,52.8657085 119.037122,45.9483291 C118.71969,34.4017282 125.809012,25.7252447 126.113218,25.354907 L127.158099,24.1116304 L127.158099,24.1248567 Z" id="Shape" fill="#1D1D1B"></path>
            <path d="M32.9732828,27.378538 L33.0526409,27.4182171 L33.1319989,27.3653117 C33.3965259,27.0743321 33.9255798,26.5981836 34.0975223,26.3997884 C34.5868971,25.8442818 34.7852923,25.738471 35.4069306,25.1961908 C35.7904947,24.8655321 35.9888899,24.7861741 36.3460012,24.4158363 C36.5179437,24.2306675 37.0073186,23.8471034 37.3247509,23.6487082 L37.404109,23.5561238 L37.3379773,23.4635394 C36.0550216,22.6038268 34.507539,21.5324927 33.0658672,21.0695706 C31.8225906,20.6727802 29.4286218,20.4611586 27.6166123,21.0695706 C26.0162243,21.6118508 23.9661406,22.6699586 23.9793032,23.6090292 C23.9793032,23.8206507 24.1248567,24.098404 24.4951944,24.058725 C25.9897716,23.9000088 27.338859,23.3180496 29.7196014,24.8390794 C30.9893307,25.6458866 31.8887223,26.3997884 32.9865091,27.3653117" id="Path" fill="#1D1D1B"></path>
            <path d="M39.2161185,48.6068248 C39.692267,47.4561326 40.1684155,46.2922141 40.7768274,45.1944273 C41.6894454,43.5675866 43.0517591,41.3058813 44.5198836,40.2742263 C45.8160656,39.3748347 45.1944273,37.9199365 46.1599506,37.2453928 C47.548717,36.2798695 46.7815889,35.6714575 46.0144608,34.0446169 C45.2737854,32.4706816 43.8321136,31.0025571 42.8798166,29.4683009 L42.8136849,29.4153955 L42.7475531,29.4153955 C42.5227052,29.6005643 41.9142933,30.0370338 41.8349352,30.1031655 C41.028128,30.8173882 41.1339388,30.7512565 40.300679,31.4390265 C39.8113041,31.8490433 39.0574023,32.4574553 38.7135173,33.0658672 L38.6473856,33.2907151 L38.7664227,33.5420157 C39.8509832,35.1424037 41.4249184,37.0866767 40.8958646,39.0177233 C40.2345472,41.4249184 37.6025042,42.7607795 36.2005114,40.8032801 C35.9492108,40.4461688 35.5127414,39.6261353 35.420157,39.2028922 C35.2085354,38.2638215 35.3937043,38.1051054 35.3937043,37.0469976 C35.3937043,36.3195485 35.499515,35.803721 35.803721,35.1291773 C36.0814743,34.5339917 36.6502072,33.6346001 36.9015078,33.0790936 C37.6950886,31.3067631 40.8958646,28.7805308 42.5094789,27.682744 C43.4220968,27.0478794 45.0621638,26.3997884 46.0276872,25.9104135 C48.4084296,24.6935896 50.5114187,24.4819681 53.3021779,24.4819681 C54.9554713,24.4819681 56.7013491,25.0242483 58.222379,24.4290627 C59.7037298,23.8471034 61.0792699,23.2386915 62.6135261,22.6435059 L62.7722423,22.5509214 L62.6399788,22.458337 C59.4259765,21.3208712 55.8151838,21.0695706 52.3763337,20.6463275 C50.2865708,20.3950269 48.0380919,20.4214796 46.0012345,20.9240808 C43.6469447,21.50604 41.5571819,22.6302795 39.4409664,23.7280663 C38.8457808,24.0454986 37.7215413,24.7994004 37.1924874,25.2358699 C36.0814743,26.1484878 34.6794815,27.1801428 34.0181642,28.0001764 C33.6742792,28.4101931 32.3516445,29.8650913 31.9945331,30.2486553 C31.5051583,30.7644828 31.0951415,31.7035535 30.7909355,32.3648708 C30.0634865,33.9388061 29.627017,35.7904947 29.4021691,37.4702407 C29.0318314,40.2874526 29.7592805,43.2237016 31.1215942,45.6573494 C31.7961379,46.860947 32.8410193,48.3952032 33.9784851,49.1755577 C34.7456133,49.7046116 37.4834671,51.2785469 38.2373688,50.749493 C38.7267437,50.405608 39.0309497,49.0961996 39.2425712,48.6068248" id="Path" fill="#1D1D1B"></path>
            <path d="M99.5018076,44.3347148 C99.4356759,43.4617759 99.2372807,42.3772154 98.9992064,41.5704083 C98.6685477,40.4329424 98.3246627,39.2822502 97.9940041,38.1844635 C97.570761,36.7427916 96.8962173,35.3143462 96.314258,33.9388061 C95.8910149,32.9468301 95.1106604,32.1400229 94.3170796,31.4125738 C93.5896305,30.7512565 93.0870294,29.7328278 92.4521647,28.978926 C91.5792258,27.947271 90.4285336,27.2065955 89.4365576,26.346883 C88.6032978,25.6194339 87.8229433,25.3416806 86.7516092,25.3416806 C85.7860859,25.3416806 84.7147518,24.8787585 83.8682656,24.3893837 C83.1011375,23.9529142 82.7043471,23.8471034 81.7917291,23.8338771 C80.4294154,23.8074244 79.4506657,23.0006172 78.1809364,22.7493166 C77.440261,22.6038268 76.6070011,22.9080328 75.9456838,22.7360903 C75.6943832,22.6699586 75.6282515,22.6435059 75.4034036,22.5509214 C74.9008024,22.3392999 74.2923904,22.5509214 73.7501102,22.4451107 C72.599418,22.2070364 71.3164624,21.9821885 70.1128648,22.2996208 C69.4912265,22.4715634 68.9489463,22.9212591 68.287629,22.9344855 C67.7321224,22.9477118 67.070805,22.8948065 66.5020721,23.0799753 C65.9201129,23.2783705 65.5497752,23.7809717 64.9678159,24.0322723 C64.6107045,24.1777621 64.2535932,24.2571202 63.8171237,24.3497046 C62.838374,24.5613262 61.7009082,25.2755489 60.7618376,25.7781501 C59.7830879,26.2939776 58.7778855,25.9104135 57.9446257,26.6775417 C57.6271934,26.9685213 57.309761,27.6562913 56.965876,27.9340446 C56.2252006,28.5292302 55.4845252,28.6614937 54.8496605,29.4683009 C54.6115863,29.7725068 54.4396438,30.0370338 54.1089851,30.275108 C53.8047791,30.4999559 53.4212151,30.6057667 53.1566881,30.8570673 C52.8128031,31.1744996 52.6011816,31.7961379 52.349881,32.2061547 C51.9927696,32.7616612 51.8208271,32.7087558 51.3049996,32.9865091 C50.7627193,33.2774888 50.6965876,34.0578432 50.2468918,34.3885019 C49.8368751,34.7059342 49.149105,34.851424 48.9771625,35.3672516 C48.8581254,35.6979102 49.0697469,36.1343797 48.9507098,36.4782647 C48.8713517,36.7163389 48.6729565,36.7692443 48.6332775,37.0205449 C48.5671458,37.3644299 48.9903889,38.2109161 48.6729565,38.4886694 C48.3026188,38.8061018 47.9190548,38.1183317 47.4561326,38.4886694 C46.9932105,38.8457808 46.9799841,39.3616083 47.1916057,39.8113041 C47.4296799,40.3271316 47.4561326,40.3139053 46.9932105,40.6313376 C46.4509303,41.0016753 46.0276872,41.4645975 45.4854069,41.8613879 C45.3134644,41.9936514 44.9299004,42.2184993 44.7579579,42.3639891 C43.236928,43.6337184 42.4168945,45.8821973 41.5175029,47.6942069 C40.7371484,49.2945948 40.3535843,50.9346618 39.731946,52.6011816 C39.388061,53.5137995 39.044176,54.4528701 38.73997,55.3919407 C38.5415748,56.013579 38.5812539,56.66167 38.5018958,57.309761 C38.3828587,58.222379 38.0786527,59.0820915 38.0257473,60.0079358 C37.9728419,60.8808747 37.9728419,61.7538136 37.9728419,62.6399788 C37.9728419,63.7113129 37.9992946,64.8223261 38.1712371,65.8672075 C38.2505952,66.3565823 38.4225377,66.8459571 38.5548012,67.3221056 C38.6870646,67.8114805 38.700291,68.2744026 38.8061018,68.7373248 C38.9515916,69.3589631 39.3748347,70.0070541 39.7451724,70.5228816 C40.0096993,70.8932193 40.5916586,71.3164624 40.7239221,71.6603474 C41.4513711,72.1629486 41.7158981,72.7316815 42.6152897,73.0887929 C43.6733974,73.4988096 44.9960321,73.8426946 46.1334979,73.4326779 C46.9403051,73.1416983 46.8477207,72.255533 47.6809805,73.168151 C48.2364871,73.7765629 49.0036152,74.3585222 49.8633277,74.543691 C50.2468918,74.6230491 50.4188343,74.5833701 50.8156247,74.5304647 C50.9875672,74.504012 51.133057,74.4775593 51.2653205,74.4511066 C51.2653205,74.4511066 52.1382594,72.0835905 52.7598977,71.5413103 C52.9450666,71.3825941 53.5137995,71.3958205 53.6725157,71.223878 C54.5057755,70.31126 53.9634953,67.2956529 54.8496605,66.4491667 C55.0480557,66.2639979 55.669694,66.343356 55.9209946,66.2375452 C56.1590689,66.1317344 56.6484437,65.8804338 56.7807072,65.6423596 C56.9129706,65.4175117 57.1510449,64.7561943 56.926197,64.6107045 C56.7674808,64.5048937 56.5558593,64.7165153 56.3574641,64.6371572 C56.0797108,64.5181201 55.7887312,63.7774447 55.6035623,63.5261441 C55.1803192,62.9441848 54.6909444,62.3357729 54.5057755,61.6083238 C54.3470593,60.9734591 54.2147959,60.2724627 53.989948,59.5979191 C53.7651001,58.9233754 53.4476678,58.3281898 53.4476678,57.6007407 C53.4476678,56.9526497 53.646063,56.5690856 53.9502689,56.0929371 C54.3999647,55.4183934 53.8444582,55.4580725 53.725421,54.7306234 C53.5270258,53.5667049 54.677718,53.1170091 55.2464509,52.3366546 C55.8548629,51.5033948 56.4897275,50.2204391 56.5955383,49.2020104 C56.66167,48.5274667 56.7807072,47.9190548 56.8865179,47.2709638 C56.9791024,46.7419099 56.9129706,46.1334979 57.0055551,45.6044441 C57.2171766,44.3082621 57.0981395,42.9194956 57.7462305,41.7158981 C57.9446257,41.3455604 58.3678688,41.1207125 58.2091526,40.6577903 C58.0504365,40.2345472 57.5478353,40.1816418 57.1245922,40.1551891 C56.8336126,40.1551891 55.6961467,40.5916586 55.4316198,40.2874526 C55.2596773,40.0758311 55.8019575,39.4674191 55.7358258,39.1103077 C55.6961467,38.8590071 54.0957588,39.8906622 53.3021779,40.1155101 C51.4240367,40.644564 53.2095935,37.708315 52.6805396,37.8802575 C52.1382594,37.9860682 50.9743409,38.8193281 51.2520942,37.8670311 C51.3843576,37.4173353 51.8208271,37.139582 52.1118067,36.8882815 C52.733445,36.3195485 53.3550833,35.5656468 53.8576845,34.8778767 C54.7306234,33.6478265 55.8416365,32.867472 57.1245922,32.1003439 C58.3149634,31.3861212 59.4656556,30.2883344 60.7353849,29.8121859 C61.846398,29.4021691 63.0632219,29.2566793 64.1477824,28.7540781 C65.047174,28.330835 65.7878494,27.9075919 66.7798254,27.7224231 C67.5205008,27.5769333 68.2479499,27.2198219 68.975399,27.1404638 C69.5705846,27.0743321 70.2186756,27.1404638 70.8138612,27.1404638 C71.6603474,27.1669165 72.4803809,27.1404638 73.3268671,27.0875584 C74.3849749,27.0082003 74.7288599,26.9817476 75.7472886,27.4049907 C77.2418658,28.0398554 78.8819328,28.330835 80.3632837,29.0053787 C82.5456309,29.9973547 84.7412045,30.8173882 86.4474032,32.6029451 C87.8229433,34.0446169 89.1984834,35.6185522 90.2169121,37.3115246 C90.6930606,38.1051054 90.9179085,38.9780443 91.3279252,39.7980778 C91.8305264,40.8165065 92.1479587,41.7026717 92.4124857,42.8269112 C92.6637863,43.924698 92.9812186,45.0621638 93.1531611,46.173177 C93.2854246,47.0461159 93.1531611,47.9851865 93.0870294,48.8581254 C92.9679922,50.4849661 92.8621815,52.4424654 92.121506,53.9238162 C91.2617935,55.669694 89.9920642,57.9975311 88.2065074,58.910149 C87.0161361,59.518561 85.7993122,59.902125 84.569262,60.3914999 C82.9027423,61.0528172 81.2362226,61.2379861 79.4903448,60.4973106 C76.9112071,59.4127502 74.464333,57.2833084 74.2262587,54.333833 C74.160127,53.4344414 74.1072216,52.4689181 74.2262587,51.5827528 C74.3320695,50.8949828 74.6362755,50.3923816 74.9404814,49.7707433 C75.3372718,48.9639362 75.535667,48.1042236 76.0382682,47.3635482 C76.5805485,46.5435147 77.136055,46.0276872 77.9560885,45.525086 C79.040649,44.8637686 80.6410369,45.22088 81.8975399,45.3531435 C82.6778944,45.4325015 83.6037386,45.4986333 84.1856979,46.0805925 C84.6486201,46.5435147 85.0586368,47.204832 85.4289745,47.7206596 C86.5796667,49.3210475 86.9235517,51.0140199 86.9103254,52.9715193 C86.9103254,53.4873468 86.9103254,54.0031743 86.8177409,54.5057755 C86.7119302,55.1406402 86.6325721,55.9871264 86.9103254,55.9077683 C87.5584164,55.6961467 88.3123181,54.9686976 88.6826559,54.2677013 C89.2117097,53.2889516 89.9127061,52.2705229 90.097875,51.1198307 C90.2565911,50.141081 90.4946654,49.2020104 90.4946654,48.2100344 C90.4946654,46.9667578 90.0846486,44.9563531 89.5423684,43.8188872 C88.8678247,42.3772154 87.505511,41.2662023 86.3019134,40.3139053 C85.0983158,39.3616083 83.4714752,38.9251389 81.9636716,38.7796491 C80.2310202,38.6077066 78.776122,38.6209329 77.1625077,39.2954766 C75.6943832,39.9038885 74.5304647,40.8694119 73.3004144,41.8349352 C71.7264791,43.0649855 70.1789966,44.8637686 69.3589631,46.7154572 C68.9489463,47.6545278 68.3802134,48.7919937 68.0892338,49.797196 C67.7982541,50.7759457 67.718896,51.7282427 67.5601799,52.733445 C67.2559739,54.5851336 67.5205008,56.7939335 68.0892338,58.566264 C68.5389295,59.9418041 69.8086588,61.4496076 70.655145,62.6267525 C71.8455163,64.2932722 73.7104312,65.3117009 75.4430826,66.3169033 C76.3027952,66.8195045 77.1492814,67.4279164 78.1412574,67.5998589 C79.5829292,67.8511595 81.328807,68.0760074 82.5456309,67.8114805 C83.4979279,67.6130853 84.2121506,67.7718014 85.1115422,67.3617847 C85.7728595,67.070805 86.249008,66.9517679 86.9367781,66.7004673 C88.5107133,66.1317344 90.2301384,65.5894542 91.6321312,64.7561943 C92.7563707,64.0816506 93.8541575,62.8648267 94.6345119,61.8331717 C95.3751874,60.854422 95.9968257,59.6772771 96.5920113,58.6323957 C97.1871969,57.574288 97.9014196,56.317785 98.1527202,55.1406402 C98.2849837,54.5454545 98.5891897,53.8973635 98.7611322,53.3154043 C99.0521118,52.3631073 99.1050172,51.2653205 99.3034124,50.2865708 C99.4885813,49.3871793 99.5414866,48.5671458 99.594392,47.6413015 C99.6605238,46.4906093 99.6340711,45.9747818 99.5282603,44.3743938" id="Path" fill="#1D1D1B"></path>
            <path d="M80.4029627,78.6174059 C79.3580813,77.7973724 78.9745172,77.2154131 77.7047879,76.6863592 C76.487964,76.1705317 76.2763425,76.4218323 75.0859713,75.6679305 C74.6230491,75.3769509 74.1469006,74.7024072 73.8030156,74.3188431 C73.168151,73.6046204 73.0094348,73.9220527 72.3745701,73.0094348 C72.0174588,72.5068336 72.4274755,71.7264791 72.2423067,71.1709726 C71.871969,70.0070541 70.8799929,68.8166828 70.2848073,67.6924433 C69.0812098,65.391059 66.7401464,63.1293537 64.2932722,61.9257561 C60.7618376,60.1931047 62.5341681,58.5001323 58.1694736,63.9890662 L58.0768892,64.3064985 C59.3730712,64.3064985 60.5634424,61.3967022 61.7802663,61.7670399 C63.3145225,62.2431884 65.4571907,65.7084913 65.3513799,66.8856362 C65.2455692,68.1421391 63.5261441,69.3457367 63.446786,71.0122564 C63.3542016,72.7581342 64.2403668,73.5252623 63.6451812,74.9933868 C63.3277489,75.7737413 62.2828675,76.1044 61.9786615,76.9244335 C61.6744555,77.744467 62.0447932,78.8422538 62.0712459,79.6755136 C62.1770567,82.1356141 60.9337801,83.5640596 60.7353849,85.6538224 C60.6824795,86.1961026 60.5898951,86.9367781 60.9999118,86.8045146 C62.3886782,86.3680451 63.0632219,83.1011375 63.6980866,82.1356141 C63.9890662,81.6594657 65.5630015,80.7468477 65.6159069,80.0987567 C65.695265,79.0274226 65.3646063,76.1308527 66.1978661,77.7973724 C66.3301296,78.0618993 67.0178997,79.2258178 67.5866326,79.7945507 C68.1685918,80.3897364 68.7373248,81.2626752 69.5573583,81.6462393 C70.7477295,82.2017459 73.816242,83.1804955 70.959351,81.1833172 C68.3008553,79.3316286 68.8563619,78.6570849 68.1685918,76.9905652 C63.7113129,66.2110925 69.62349,75.0595186 69.8483379,77.7312406 C69.967375,79.1332334 71.6471211,79.8342298 72.5332863,80.0061723 C73.3665462,80.1648885 74.8611234,80.2177938 74.3320695,79.8474561 C72.5465127,78.6174059 72.6126444,76.9508862 71.0519355,75.8134203 C68.671193,74.0807689 71.0122564,74.7288599 75.2711401,77.5725245 C76.9641125,78.696764 76.5144167,79.8871352 78.8819328,80.4558681 C84.9395997,81.9107662 94.4096641,88.2726391 91.0369456,84.8866943 C89.0133145,82.8498369 83.3921171,80.984922 80.37651,78.6306322" id="Path" fill="#1D1D1B"></path>
            <path d="M105.546248,111.749405 L105.546248,106.815977 L109.170267,106.815977 L109.170267,104.898157 L105.546248,104.898157 L105.546248,102.398378 L110.016753,102.398378 L110.016753,100.493784 L103.430033,100.493784 L103.430033,111.749405 L105.546248,111.749405 L105.546248,111.749405 Z M98.9330747,106.15466 C98.9330747,108.36346 97.1739705,110.109338 94.9387179,110.109338 C92.8357288,110.109338 91.1030773,108.178291 91.1030773,106.062076 C91.1030773,103.94586 92.8886342,102.133851 95.0445287,102.133851 C97.2004232,102.133851 98.9330747,103.866502 98.9330747,106.15466 M101.19478,106.167886 C101.19478,102.768715 98.4436999,100.229257 95.0445287,100.229257 C91.6453576,100.229257 88.8545984,102.887752 88.8545984,106.128207 C88.8545984,109.368662 91.6056785,112.013932 95.0445287,112.013932 C98.4833789,112.013932 101.19478,109.381889 101.19478,106.181113 M86.6193457,111.762631 L86.6193457,100.493784 L84.5031302,100.493784 L84.5031302,105.056873 L79.3977603,105.056873 L79.3977603,100.493784 L77.2815448,100.493784 L77.2815448,111.762631 L79.3977603,111.762631 L79.3977603,106.974694 L84.5031302,106.974694 L84.5031302,111.762631 L86.6193457,111.762631 Z M74.4114276,112.185874 L74.4378803,100.493784 L72.3216648,100.493784 L72.3216648,107.67569 L64.055198,100.189578 L64.0287453,111.775858 L66.1449608,111.775858 L66.1185081,104.898157 L74.4114276,112.199101 L74.4114276,112.185874 Z M61.8199453,111.749405 L61.8199453,109.831585 L56.7674808,109.831585 L56.7674808,106.763072 L60.4576316,106.763072 L60.4576316,104.845252 L56.7674808,104.845252 L56.7674808,102.411604 L61.3570232,102.411604 L61.3570232,100.50701 L54.6512653,100.50701 L54.6512653,111.749405 L61.8199453,111.749405 Z M47.2577374,105.943039 L47.2577374,102.411604 L48.2364871,102.411604 C49.6517062,102.411604 50.2997972,103.099374 50.2997972,104.117803 C50.2997972,105.228816 49.5458954,105.929812 47.9984128,105.929812 L47.2577374,105.929812 L47.2577374,105.943039 Z M47.2577374,111.762631 L47.2577374,107.860859 L48.0513182,107.860859 C51.1198307,107.860859 52.5482762,106.366282 52.5482762,104.117803 C52.5482762,101.34027 50.4981924,100.480557 47.6677542,100.480557 L45.1547483,100.480557 L45.1547483,111.749405 L47.2709638,111.749405 L47.2577374,111.762631 Z M43.2633807,111.749405 L43.2633807,109.831585 L38.5548012,109.831585 L38.5548012,100.493784 L36.4385857,100.493784 L36.4385857,111.749405 L43.2633807,111.749405 Z M30.8306146,107.926991 L27.4314434,107.926991 L29.1111895,104.355877 L30.8306146,107.926991 Z M35.0365929,111.762631 L29.1376422,100.004409 L23.2386915,111.762631 L25.5929812,111.762631 L26.5717309,109.699321 L31.6771008,109.699321 L32.6558505,111.762631 L35.0233665,111.762631 L35.0365929,111.762631 Z" id="Shape" fill="#FFFFFF"></path>
        </g>
    </g>
</svg>