<?xml version="1.0" encoding="UTF-8"?>
<svg width="134px" height="150px" viewBox="0 0 134 150" version="1.1" xmlns="http://www.w3.org/2000/svg" xmlns:xlink="http://www.w3.org/1999/xlink">
    <title>logos/tradition</title>
    <g id="logos/tradition" stroke="none" stroke-width="1" fill="none" fill-rule="evenodd">
        <g id="Tradition_Julen" transform="translate(1.000000, 0.000000)" fill-rule="nonzero">
            <path d="M65.774623,149.960321 L62.7854687,147.513447 C59.3466185,144.709461 55.7622785,142.024513 51.8208271,139.299885 C48.3026188,136.866238 42.3507627,133.440614 37.1131294,130.41178 C34.4149546,128.851071 31.875496,127.382947 29.9444493,126.219028 C28.6614937,125.438674 27.3653117,124.684772 26.1220351,123.970549 C22.0218676,121.589807 18.1465479,119.341328 15.2235253,116.537342 C7.92258178,109.567058 3.1875496,95.7852041 3.96790406,83.7624548 C4.28533639,78.8554801 5.27731241,73.247509 6.32219381,67.3088793 L6.32219381,67.2427476 C7.60514946,59.9947095 8.92778415,52.4953708 9.09972666,45.8557446 C9.37747994,35.5920995 2.89656997,27.6695177 2.83043823,27.5901596 L0,24.2703465 L17.9878318,0.0529053875 L21.4002293,1.44167181 C25.7781501,3.13464421 40.7239221,6.36187285 65.8143021,6.36187285 C90.9046821,6.36187285 106.114981,3.17432325 110.109338,1.4945772 L113.548188,0 L115.889251,3.10819152 L131.615378,24.2835729 L128.798166,27.6298386 C128.798166,27.6298386 122.251124,35.7111366 122.528878,45.8954237 C122.714046,52.5615025 124.036681,60.0740675 125.30641,67.335332 C126.351292,73.2871881 127.343268,78.8951592 127.6607,83.8021339 C128.454281,95.8116568 123.719249,109.59351 116.405079,116.577021 C113.482056,119.367781 109.59351,121.629486 105.493343,124.010228 C104.250066,124.737677 102.953884,125.478353 101.684155,126.258707 C99.7663345,127.422626 97.2136496,128.89075 94.5287012,130.438233 C89.3836522,133.400935 83.5376069,136.760427 80.0855304,139.154396 C76.3557006,141.733533 72.9829821,144.259765 68.7902301,147.592805 L65.774623,150 L65.774623,149.960321 Z" id="Path" fill="#FFFFFF"></path>
            <path d="M114.315316,46.1202716 C114.513711,53.4873468 115.902478,61.3570232 117.238339,68.9621726 C118.243541,74.6362755 119.182612,80.0061723 119.473591,84.3973195 C119.579402,85.944802 119.539723,87.5319637 119.420686,89.1323516 L12.2079182,89.1323516 C12.0888811,87.5319637 12.049202,85.944802 12.1550128,84.3973195 C12.4459924,80.0061723 13.385063,74.6362755 14.3902654,68.9621726 C15.7261264,61.3570232 17.1148929,53.5005731 17.3132881,46.1334979 C17.5910414,36.0550216 13.2527996,27.947271 10.7001146,24.0851777 L20.7521383,10.5149458 C25.8046028,12.0227493 39.6658143,15.249978 65.8010757,15.249978 C91.9363372,15.249978 105.916586,12.1021074 110.876466,10.5546248 L120.915263,24.0719513 C118.362578,27.947271 114.024336,36.0417953 114.30209,46.1334979 M127.171325,24.1248567 L113.098492,5.17150163 L112.423949,4.27211004 L111.484878,4.6821268 C111.365841,4.73503218 99.2901861,9.84040208 65.8010757,9.84040208 C32.3119654,9.84040208 20.2363107,4.72180584 20.1040473,4.66890045 L19.178203,4.28533639 L4.44405255,24.1248567 L5.48893396,25.354907 C5.79313993,25.7252447 12.8956882,34.3488229 12.5782559,45.9615554 C12.393087,52.8657085 11.057226,60.4840843 9.74781765,67.8643859 L9.74781765,67.9040649 C8.7161626,73.7633366 7.73741293,79.2787232 7.43320695,84.0005291 C6.70575787,95.0709814 10.9910943,107.702143 17.617494,114.024336 C20.2495371,116.537342 23.9529142,118.680011 27.8679129,120.954942 C29.1376422,121.695618 30.4338242,122.449519 31.7432325,123.2431 C33.6346001,124.393792 36.1740587,125.848691 38.8457808,127.396173 C44.1495459,130.464686 50.1543074,133.929989 53.7915528,136.429768 C57.8123622,139.207301 61.4760603,141.945155 64.9810422,144.802046 L65.8010757,145.463363 L66.6211092,144.802046 C70.8667666,141.402875 74.3056168,138.836963 78.1015783,136.218147 C81.672692,133.74482 87.5716427,130.358875 92.7828234,127.356494 C95.4545455,125.809012 97.9807777,124.36734 99.8721453,123.216648 C101.181554,122.423067 102.477736,121.669165 103.734239,120.941716 C107.662464,118.666784 111.365841,116.51089 113.997884,113.997884 C120.624284,107.67569 124.90962,95.0445287 124.182171,83.9740764 C123.877965,79.2522705 122.899215,73.7368839 121.880787,67.9040649 C120.571378,60.4973106 119.235517,52.8524821 119.050348,45.9351027 C118.732916,34.3885019 125.822238,25.7120183 126.126444,25.3416806 L127.171325,24.098404 L127.171325,24.1248567 Z" id="Shape" fill="#1D1D1B"></path>
            <path d="M114.315316,46.1202716 C114.513711,53.4873468 115.902478,61.3570232 117.238339,68.9621726 C118.243541,74.6362755 119.182612,80.0061723 119.473591,84.3973195 C119.579402,85.944802 119.539723,87.5319637 119.420686,89.1323516 L12.2079182,89.1323516 C12.0888811,87.5319637 12.049202,85.944802 12.1550128,84.3973195 C12.4459924,80.0061723 13.385063,74.6362755 14.3902654,68.9621726 C15.7261264,61.3570232 17.1148929,53.5005731 17.3132881,46.1334979 C17.5910414,36.0550216 13.2527996,27.947271 10.7001146,24.0851777 L20.7521383,10.5149458 C25.8046028,12.0227493 39.6658143,15.249978 65.8010757,15.249978 C91.9363372,15.249978 105.916586,12.1021074 110.876466,10.5546248 L120.915263,24.0719513 C118.362578,27.947271 114.024336,36.0417953 114.30209,46.1202716" id="Path" fill="#FFFFFF"></path>
            <path d="M32.9865091,27.378538 L33.0658672,27.4182171 L33.1452253,27.3653117 C33.4097522,27.0743321 33.9388061,26.5981836 34.1107486,26.3997884 C34.6001234,25.8442818 34.7985186,25.738471 35.420157,25.1961908 C35.803721,24.8655321 36.0021162,24.7861741 36.3592276,24.4158363 C36.5311701,24.2306675 37.0205449,23.8471034 37.3379773,23.6487082 L37.4173353,23.5561238 L37.3512036,23.4635394 C36.0682479,22.6038268 34.5207654,21.5324927 33.0790936,21.0695706 C31.8358169,20.6727802 29.4418482,20.4611586 27.6298386,21.0695706 C26.0294507,21.6118508 23.9793669,22.6699586 23.9925296,23.6090292 C23.9925296,23.8206507 24.1380831,24.098404 24.5084208,24.058725 C26.002998,23.9000088 27.3520854,23.3180496 29.7328278,24.8390794 C31.0025571,25.6458866 31.9019487,26.3997884 32.9997355,27.3653117" id="Path" fill="#1D1D1B"></path>
            <path d="M39.2293449,48.6200511 C39.7054933,47.469359 40.1816418,46.3054404 40.7900538,45.2076536 C41.7026717,43.580813 43.0649855,41.3191077 44.53311,40.2874526 C45.8292919,39.388061 45.2076536,37.9331629 46.173177,37.2586192 C47.5619434,36.2930958 46.7948153,35.6846839 46.0276872,34.0578432 C45.2870117,32.4839079 43.8453399,31.0157834 42.8930429,29.4815272 L42.8269112,29.4286218 L42.7607795,29.4286218 C42.5359316,29.6137907 41.9275196,30.0502601 41.8481615,30.1163919 C41.0413544,30.8306146 41.1471652,30.7644828 40.3139053,31.4654792 C39.8245305,31.875496 39.0706287,32.4839079 38.7267437,33.0923199 L38.6606119,33.3171678 L38.7796491,33.5684684 C39.8642095,35.1688564 41.4381448,37.099903 40.9090909,39.044176 C40.2477736,41.4513711 37.6157305,42.7872322 36.2137378,40.8297328 C35.9624372,40.4726215 35.5259677,39.652588 35.4333833,39.2293449 C35.2217617,38.2902742 35.4069306,38.1315581 35.4069306,37.0734503 C35.4069306,36.3460012 35.5127414,35.8169474 35.8169474,35.15563 C36.0947006,34.5736708 36.6634336,33.6610528 36.9147342,33.1055462 C37.708315,31.3332158 40.9090909,28.8069835 42.5227052,27.7091967 C43.4353232,27.0743321 45.0753902,26.4262411 46.0409135,25.9368662 C48.4216559,24.7200423 50.5246451,24.5084208 53.3154043,24.5084208 C54.9686976,24.5084208 56.7145754,25.050701 58.2356053,24.4555154 C59.7169562,23.8735561 61.0924963,23.2651442 62.6267525,22.6699586 L62.7854687,22.5773741 L62.6532052,22.4847897 C59.4392029,21.3473239 55.8416365,21.0827969 52.38956,20.6727802 C50.2997972,20.4214796 48.0513182,20.4479323 46.0144608,20.9505335 C43.6601711,21.5324927 41.5704083,22.6567322 39.4541928,23.754519 C38.8590071,24.0719513 37.7347677,24.8258531 37.2057138,25.2623225 C36.0947006,26.1749405 34.6927079,27.2065955 34.0313905,28.026629 C33.6875055,28.4366458 32.3648708,29.891544 32.0077595,30.275108 C31.5183846,30.7909355 31.1083679,31.7300062 30.8041619,32.3913235 C30.0767128,33.9652588 29.6402434,35.8169474 29.4153955,37.4966934 C29.0450578,40.3139053 29.7725068,43.2501543 31.1348206,45.6838021 C31.8093643,46.8873997 32.8542457,48.4216559 33.9917115,49.2020104 C34.7588396,49.7310643 37.4966934,51.3049996 38.2505952,50.7759457 C38.73997,50.4320607 39.044176,49.1226523 39.2557975,48.6332775" id="Path" fill="#1D1D1B"></path>
            <path d="M99.5150339,44.3347148 C99.4489022,43.4617759 99.250507,42.3772154 99.0124328,41.5704083 C98.6817741,40.4329424 98.3378891,39.2822502 98.0072304,38.1844635 C97.5839873,36.7427916 96.9094436,35.3143462 96.3274843,33.9388061 C95.9042412,32.9468301 95.1238868,32.1400229 94.330306,31.4125738 C93.6028569,30.7512565 93.1002557,29.7328278 92.4653911,28.978926 C91.5924522,27.9340446 90.44176,27.2065955 89.449784,26.346883 C88.6165241,25.6194339 87.8361696,25.3416806 86.7648356,25.3416806 C85.7993122,25.3416806 84.7279781,24.8787585 83.8814919,24.3893837 C83.1143638,23.9529142 82.7175734,23.8471034 81.8049555,23.8338771 C80.4426417,23.8074244 79.4638921,23.0006172 78.1941628,22.7493166 C77.4534873,22.6038268 76.6202275,22.9080328 75.9589101,22.7360903 C75.7076096,22.6699586 75.6414778,22.6435059 75.4166299,22.5509214 C74.9140287,22.3392999 74.3056168,22.5509214 73.7633366,22.4451107 C72.6126444,22.2070364 71.3296887,21.9821885 70.1260912,22.2996208 C69.5044529,22.4715634 68.9621726,22.9212591 68.3008553,22.9344855 C67.7453487,22.9477118 67.0840314,22.8948065 66.5152985,23.0799753 C65.9333392,23.2783705 65.5630015,23.7809717 64.9810422,24.0322723 C64.6239309,24.1777621 64.2668195,24.2571202 63.8303501,24.3497046 C62.8516004,24.5613262 61.7141346,25.2755489 60.7750639,25.7781501 C59.7963143,26.2939776 58.7911119,25.9236399 57.957852,26.6775417 C57.6404197,26.9685213 57.3229874,27.6562913 56.9791024,27.9340446 C56.2384269,28.5292302 55.4977515,28.6614937 54.8628869,29.4683009 C54.6248126,29.7725068 54.4528701,30.0370338 54.1222114,30.275108 C53.8180055,30.4999559 53.4344414,30.6057667 53.1699145,30.8438409 C52.8260295,31.1612733 52.6144079,31.7961379 52.3631073,32.1929283 C52.0059959,32.7484349 51.8340534,32.6955295 51.3182259,32.9600564 C50.7759457,33.2510361 50.7098139,34.0313905 50.2601182,34.3620492 C49.8501014,34.6794815 49.1623314,34.8249713 48.9903889,35.3407989 C48.8713517,35.6714575 49.0829733,36.107927 48.9639362,36.451812 C48.8845781,36.6898863 48.6861829,36.7427916 48.6465038,36.9940922 C48.5803721,37.3379773 49.0036152,38.1844635 48.6861829,38.4622167 C48.3158452,38.7796491 47.9322811,38.091879 47.469359,38.4489904 C47.0064368,38.8061018 46.9932105,39.3351556 47.204832,39.7716251 C47.4429063,40.2874526 47.469359,40.2742263 47.0064368,40.5916586 C46.4641566,40.9619963 46.0409135,41.4249184 45.4986333,41.8217088 C45.3266908,41.9539723 44.9431267,42.1788202 44.7711842,42.32431 C43.2501543,43.5940393 42.4301208,45.8425183 41.5307292,47.6545278 C40.7503747,49.2549158 40.3668107,50.8949828 39.7451724,52.5615025 C39.4012874,53.4741204 39.0574023,54.4131911 38.7531964,55.3522617 C38.5548012,55.9739 38.5944802,56.621991 38.5151221,57.270082 C38.396085,58.1826999 38.091879,59.0424125 38.0389736,59.9682568 C37.9860682,60.8411957 37.9860682,61.7141346 37.9860682,62.6002998 C37.9860682,63.6716339 38.0125209,64.782647 38.1844635,65.8275284 C38.2638215,66.3169033 38.435764,66.8062781 38.5680275,67.2824266 C38.700291,67.7718014 38.7135173,68.2347236 38.8193281,68.6976457 C38.9648179,69.319284 39.388061,69.967375 39.7583987,70.4832025 C40.0229257,70.8535403 40.6048849,71.2767834 40.7371484,71.6206684 C41.4645975,72.1232696 41.7291244,72.6920025 42.628516,73.0491138 C43.6866238,73.4591306 45.0092584,73.8030156 46.1467243,73.3929989 C46.9535314,73.1020192 46.860947,72.2026276 47.6942069,73.1284719 C48.2497134,73.7368839 49.0168415,74.3188431 49.8765541,74.504012 C50.2601182,74.5833701 50.4320607,74.543691 50.8288511,74.4907856 C51.0007936,74.464333 51.1462834,74.4378803 51.2785469,74.4114276 C51.2785469,74.4114276 52.1514858,72.0439115 52.7731241,71.5016312 C52.9582929,71.3429151 53.5270258,71.3561414 53.685742,71.1841989 C54.5190019,70.271581 53.9767216,67.2559739 54.8628869,66.4094877 C55.0612821,66.2243188 55.6829204,66.3036769 55.934221,66.1978661 C56.1722952,66.0920554 56.66167,65.8407548 56.7939335,65.6026805 C56.926197,65.3778326 57.1642712,64.7165153 56.9394233,64.5710255 C56.7807072,64.4652147 56.5690856,64.6768363 56.3706904,64.5974782 C56.0929371,64.4784411 55.8019575,63.7377656 55.6167886,63.4996914 C55.1935455,62.9177321 54.7041707,62.3093202 54.5190019,61.5818711 C54.3602857,60.9470064 54.2280222,60.2460101 54.0031743,59.5714664 C53.7783264,58.8969227 53.4608941,58.3017371 53.4608941,57.574288 C53.4608941,56.9129706 53.6592893,56.5426329 53.9634953,56.0664844 C54.4131911,55.3919407 53.8576845,55.4316198 53.7386474,54.7041707 C53.5402522,53.5402522 54.6909444,53.0905564 55.2596773,52.3102019 C55.8680892,51.4769421 56.5029539,50.1939864 56.6087647,49.1755577 C56.6748964,48.501014 56.7939335,47.8926021 56.8997443,47.2445111 C56.9923287,46.7154572 56.926197,46.1070452 57.0187814,45.5779914 C57.230403,44.2818094 57.1113658,42.8930429 57.7594568,41.6894454 C57.957852,41.3191077 58.3810951,41.0942598 58.222379,40.6313376 C58.0636628,40.2080945 57.5610616,40.1551891 57.1378185,40.1287364 C56.8468389,40.1287364 55.7093731,40.5652059 55.4448461,40.2609999 C55.2729036,40.0493784 55.8151838,39.4409664 55.7490521,39.083855 C55.7093731,38.8193281 54.1089851,39.8642095 53.3154043,40.0890574 C51.437263,40.6181113 53.2228199,37.6818623 52.693766,37.8538048 C52.1514858,37.9596156 50.9875672,38.7928754 51.2653205,37.8405784 C51.397584,37.3908826 51.8340534,37.1131294 52.1250331,36.8618288 C52.7466714,36.2930958 53.3683097,35.5391941 53.8709109,34.851424 C54.7438497,33.6213738 55.8548629,32.8410193 57.1378185,32.0738912 C58.3281898,31.3728948 59.4656556,30.2618817 60.7486112,29.7857332 C61.8596244,29.3757164 63.0764483,29.2302266 64.1610087,28.7276254 C65.0604003,28.3043823 65.8010757,27.8811392 66.7930518,27.682744 C67.5337272,27.5372542 68.2611763,27.1801428 68.9886253,27.1007848 C69.583811,27.034653 70.2319019,27.1007848 70.8270876,27.1007848 C71.6735738,27.1272375 72.4936073,27.1007848 73.3400935,27.0478794 C74.3982012,26.9685213 74.7420862,26.9420686 75.7605149,27.3653117 C77.2550921,27.98695 78.8951592,28.291156 80.37651,28.9656997 C82.5588572,29.9576757 84.7544308,30.7777092 86.4606296,32.563266 C87.8361696,34.0049378 89.2117097,35.5788731 90.2301384,37.2718455 C90.7062869,38.0654263 90.9311348,38.9383652 91.3411516,39.7583987 C91.8437528,40.7768274 92.1611851,41.6629927 92.425712,42.7872322 C92.6770126,43.885019 92.9944449,45.0224848 93.1663874,46.1334979 C93.2986509,47.0064368 93.1663874,47.9455075 93.1002557,48.8184463 C92.9812186,50.445287 92.8754078,52.4027864 92.1347324,53.8841372 C91.2750198,55.630015 90.0052905,57.957852 88.2197337,58.87047 C87.0293625,59.4788819 85.8125386,59.862446 84.5824883,60.3385945 C82.9159686,60.9999118 81.2494489,61.1850807 79.5035711,60.4444053 C76.9244335,59.3598448 74.4775593,57.230403 74.2394851,54.2809276 C74.1733533,53.3947624 74.1204479,52.4160127 74.2394851,51.5298475 C74.3452958,50.8420774 74.6495018,50.3394762 74.9537078,49.7178379 C75.3504982,48.9110308 75.5488934,48.0513182 76.0514946,47.3106428 C76.5937748,46.4906093 77.1492814,45.9747818 77.9693149,45.4721806 C79.0538753,44.8108632 80.6542633,45.1679746 81.9107662,45.3002381 C82.6911207,45.3795962 83.616965,45.4457279 84.1989243,46.0276872 C84.6618464,46.4906093 85.0718632,47.1519266 85.4422009,47.6677542 C86.592893,49.2681421 86.9367781,50.9611145 86.9235517,52.9186139 C86.9235517,53.4344414 86.9235517,53.9502689 86.8309673,54.4528701 C86.7251565,55.0877348 86.6457984,55.934221 86.9235517,55.8548629 C87.5716427,55.6432413 88.3255445,54.9157923 88.6958822,54.2147959 C89.2249361,53.2360462 89.9259325,52.2176175 90.1111013,51.0669253 C90.2698175,50.0881756 90.5078917,49.149105 90.5078917,48.157129 C90.5078917,46.9138524 90.097875,44.9034477 89.5555947,43.7659818 C88.8810511,42.32431 87.5187373,41.2132969 86.3151398,40.2609999 C85.1115422,39.3087029 83.4847015,38.8722335 81.976898,38.7267437 C80.2442465,38.5548012 78.7893484,38.5680275 77.1757341,39.2425712 C75.7076096,39.8509832 74.543691,40.8165065 73.3136408,41.7820298 C71.7397055,43.0120801 70.1922229,44.8108632 69.3721894,46.6625518 C68.9621726,47.6016224 68.3934397,48.7390883 68.1024601,49.7442906 C67.8114805,50.7230403 67.7321224,51.6753373 67.5734062,52.6673133 C67.2692002,54.5190019 67.5337272,56.7278018 68.1024601,58.5001323 C68.5521559,59.8756723 69.8218852,61.3834759 70.6683714,62.5606208 C71.8587426,64.2271405 73.7236575,65.2455692 75.456309,66.2507715 C76.3160215,66.7533727 77.1625077,67.3617847 78.1544837,67.5337272 C79.5961555,67.7850278 81.3420333,68.0098757 82.5588572,67.7453487 C83.5111542,67.5469535 84.225377,67.7056697 85.1247685,67.2956529 C85.7860859,67.0046733 86.2754607,66.8856362 86.9500044,66.6343356 C88.5239397,66.0656027 90.2433648,65.5233225 91.6453576,64.6900626 C92.769597,64.0155189 93.8673838,62.798695 94.6477383,61.7670399 C95.3884137,60.7882903 96.010052,59.6111454 96.6052376,58.566264 C97.2004232,57.5081562 97.914646,56.2516533 98.1659466,55.0745084 C98.29821,54.4793228 98.602416,53.8312318 98.7743585,53.2492726 C99.0653382,52.2969756 99.1182435,51.1991888 99.3166387,50.2204391 C99.5018076,49.3210475 99.554713,48.501014 99.6076184,47.5751697 C99.6737501,46.4244776 99.6472974,45.90865 99.5414866,44.3082621" id="Path" fill="#1D1D1B"></path>
            <path d="M80.416189,78.6174059 C79.3713076,77.7973724 78.9877436,77.2154131 77.7180143,76.6863592 C76.5011904,76.1705317 76.2895688,76.4218323 75.0991976,75.6679305 C74.6362755,75.3769509 74.160127,74.7024072 73.816242,74.3188431 C73.1813773,73.6046204 73.0226611,73.9220527 72.3877965,72.9962084 C72.0306851,72.4936073 72.4407019,71.7132528 72.255533,71.1577462 C71.8851953,69.9938277 70.8932193,68.8034565 70.2980337,67.679217 C69.0944361,65.3778326 66.7533727,63.1161273 64.3064985,61.9125298 C60.7750639,60.1798783 62.5473944,58.4869059 58.1826999,63.9758399 L58.0901155,64.2932722 C59.3862975,64.2932722 60.5766687,61.3834759 61.7934926,61.7538136 C63.3277489,62.2299621 65.4704171,65.695265 65.3646063,66.8724098 C65.2587955,68.1289128 63.5393704,69.3325104 63.4600123,70.9990301 C63.3674279,72.7316815 64.2535932,73.512036 63.6584075,74.9801605 C63.3409752,75.7605149 62.2960938,76.0911736 61.9918878,76.9112071 C61.6876819,77.7312406 62.0580196,78.8290274 62.0844723,79.6622873 C62.190283,82.1223878 60.9470064,83.5508333 60.7486112,85.6405961 C60.6957058,86.1828763 60.6031214,86.9235517 61.0131382,86.7912882 C62.4019046,86.3548188 63.0764483,83.0879111 63.7245393,82.1223878 C64.0155189,81.6462393 65.5894542,80.7336214 65.6423596,80.0855304 C65.7217177,79.0141963 65.391059,76.1176263 66.2243188,77.784146 C66.3565823,78.048673 67.0443523,79.2125915 67.6130853,79.7813244 C68.1950445,80.37651 68.7637774,81.2494489 69.583811,81.633013 C70.7741822,82.1885195 73.8426946,83.1672692 70.9858037,81.1700908 C68.327308,79.3184023 68.8828146,78.6438586 68.1950445,76.9773389 C63.7377656,66.1978661 69.6499427,75.0462922 69.8747906,77.7180143 C69.9938277,79.1200071 71.6735738,79.8210034 72.559739,79.9929459 C73.3929989,80.1516621 74.8875761,80.2045675 74.3585222,79.8342298 C72.5729653,78.6041795 72.6390971,76.9376598 71.0783881,75.800194 C68.6976457,74.0675425 71.0387091,74.7156335 75.2975928,77.5592981 C76.9905652,78.6835376 76.5408694,79.8739088 78.9083855,80.4426417 C84.9660524,81.8975399 94.4361167,88.2594128 91.0633983,84.8734679 C89.0397672,82.8366105 83.4185698,80.9716956 80.4029627,78.6174059" id="Path" fill="#1D1D1B"></path>
            <path d="M90.4153073,119.962966 L90.4153073,112.688475 L92.8225024,112.688475 L92.8225024,111.207125 L86.4738559,111.207125 L86.4738559,112.688475 L88.8810511,112.688475 L88.8810511,119.962966 L90.4153073,119.962966 L90.4153073,119.962966 Z M83.4714752,119.962966 L83.4714752,112.688475 L85.8786703,112.688475 L85.8786703,111.207125 L79.5300238,111.207125 L79.5300238,112.688475 L81.9372189,112.688475 L81.9372189,119.962966 L83.4714752,119.962966 L83.4714752,119.962966 Z M77.1228287,116.973812 L74.6627282,116.973812 L75.8795521,114.196279 L77.1228287,116.973812 Z M80.1648885,119.962966 L75.9060048,110.810334 L71.6471211,119.962966 L73.3533198,119.962966 L74.0675425,118.349352 L77.7576933,118.349352 L78.4719161,119.962966 L80.1781148,119.962966 L80.1648885,119.962966 Z M70.8403139,119.962966 L69.7160744,110.96905 L65.9994709,117.304471 L62.2696411,110.955824 L61.158628,119.94974 L62.8119213,119.94974 L63.2087118,115.545366 L65.9862446,120.293625 L68.7770038,115.492461 L69.2002469,119.936514 L70.8403139,119.936514 L70.8403139,119.962966 Z M55.1803192,115.201481 L55.1803192,112.688475 L55.7358258,112.688475 C56.8997443,112.688475 57.3891191,113.17785 57.3891191,113.905299 C57.3891191,114.778238 56.8468389,115.201481 55.6961467,115.201481 L55.1803192,115.201481 Z M60.510537,119.962966 L57.0452341,116.550569 C58.1165682,116.259589 59.0027334,115.558593 59.0027334,113.892073 C59.0027334,111.524557 56.8997443,111.193898 55.325809,111.193898 L53.646063,111.193898 L53.646063,119.962966 L55.1803192,119.962966 L55.1803192,116.696059 L55.3390354,116.696059 L58.3943215,119.962966 L60.510537,119.962966 L60.510537,119.962966 Z M52.2969756,119.962966 L52.2969756,118.468389 L48.6465038,118.468389 L48.6465038,116.087647 L51.3182259,116.087647 L51.3182259,114.593069 L48.6465038,114.593069 L48.6465038,112.701702 L51.9663169,112.701702 L51.9663169,111.220351 L47.1122476,111.220351 L47.1122476,119.962966 L52.2969756,119.962966 Z M45.8292919,119.962966 L45.8292919,118.468389 L41.372013,118.468389 L45.8425183,111.220351 L39.5732299,111.220351 L39.5732299,112.701702 L43.1311172,112.701702 L38.6077066,119.962966 L45.8292919,119.962966 L45.8292919,119.962966 Z" id="Shape" fill="#FFFFFF"></path>
            <path d="M116.193457,104.845252 L116.21991,95.7587514 L114.685654,95.7587514 L114.685654,101.34027 L108.707345,95.5074508 L108.680892,104.514593 L110.215149,104.514593 L110.188696,99.1711489 L116.193457,104.845252 L116.193457,104.845252 Z M107.345031,104.514593 L107.345031,103.020016 L103.69456,103.020016 L103.69456,100.639273 L106.366282,100.639273 L106.366282,99.1446962 L103.69456,99.1446962 L103.69456,97.2533286 L107.014373,97.2533286 L107.014373,95.7719778 L102.17353,95.7719778 L102.17353,104.514593 L107.358258,104.514593 L107.345031,104.514593 Z M101.075743,104.514593 L101.075743,103.020016 L97.6765717,103.020016 L97.6765717,95.7587514 L96.1423155,95.7587514 L96.1423155,104.514593 L101.075743,104.514593 L101.075743,104.514593 Z M92.8489551,102.795168 C92.4521647,103.072921 91.8966581,103.25809 91.2485671,103.25809 C89.5952738,103.25809 89.1720307,102.543867 89.1720307,100.335067 L89.1720307,95.7455251 L87.6377744,95.7455251 L87.6377744,101.287364 C87.6377744,103.588749 88.841372,104.726215 90.9972666,104.726215 C92.6637863,104.726215 93.7483467,104.144255 94.3832114,103.443259 L94.3832114,95.7587514 L92.8489551,95.7587514 L92.8489551,102.795168 L92.8489551,102.795168 Z M83.1672692,107.490521 C85.2702584,106.617582 85.8918967,105.837228 85.8918967,103.350675 L85.8918967,95.7455251 L84.3576404,95.7455251 L84.3576404,103.310996 C84.3576404,105.17591 84.0402081,105.599154 82.6382153,106.088528 L83.1804955,107.490521 L83.1672692,107.490521 Z M77.2683185,104.845252 L77.2947712,95.7587514 L75.7605149,95.7587514 L75.7605149,101.34027 L69.7822062,95.5074508 L69.7557535,104.514593 L71.2900097,104.514593 L71.263557,99.1711489 L77.2683185,104.845252 Z M66.7930518,100.163125 C66.7930518,101.88255 65.5233225,103.244864 63.9097081,103.244864 C62.3886782,103.244864 61.1321753,101.73706 61.1321753,100.096993 C61.1321753,98.4569262 62.4283573,97.0417071 63.9890662,97.0417071 C65.5497752,97.0417071 66.7930518,98.3907945 66.7930518,100.163125 M68.4331188,100.163125 C68.4331188,97.5178556 66.4359404,95.5471299 63.9890662,95.5471299 C61.542192,95.5471299 59.5053346,97.6236663 59.5053346,100.136672 C59.5053346,102.649678 61.502513,104.712988 63.9890662,104.712988 C66.4756194,104.712988 68.4331188,102.662905 68.4331188,100.176351 M58.1562472,95.7455251 L56.621991,95.7455251 L56.621991,104.514593 L58.1562472,104.514593 L58.1562472,95.7455251 Z M53.1302354,104.514593 L53.1302354,97.2401023 L55.5374306,97.2401023 L55.5374306,95.7587514 L49.1887841,95.7587514 L49.1887841,97.2401023 L51.5959792,97.2401023 L51.5959792,104.514593 L53.1302354,104.514593 Z M48.11745,95.7455251 L46.5831937,95.7455251 L46.5831937,104.514593 L48.11745,104.514593 L48.11745,95.7455251 Z M39.8245305,103.020016 L39.8245305,97.2401023 L40.9619963,97.2401023 C42.5094789,97.2401023 43.5543603,98.4304735 43.5543603,100.096993 C43.5543603,102.226435 42.2714046,103.020016 40.7636011,103.020016 L39.8113041,103.020016 L39.8245305,103.020016 Z M40.5123005,104.514593 C43.3427387,104.514593 45.1944273,102.927431 45.1944273,100.136672 C45.1944273,97.3459131 43.2104753,95.7455251 40.7636011,95.7455251 L38.2902742,95.7455251 L38.2902742,104.514593 L40.5123005,104.514593 L40.5123005,104.514593 Z M34.507539,101.525439 L32.0474385,101.525439 L33.2642624,98.7479058 L34.507539,101.525439 L34.507539,101.525439 Z M37.5495988,104.514593 L33.2907151,95.361961 L29.0186051,104.514593 L30.7248038,104.514593 L31.4390265,102.900979 L35.1291773,102.900979 L35.8434001,104.514593 L37.5495988,104.514593 L37.5495988,104.514593 Z M23.6883873,99.7531082 L23.6883873,97.2401023 L24.2438938,97.2401023 C25.4078124,97.2401023 25.8971872,97.7294771 25.8971872,98.4569262 C25.8971872,99.3298651 25.354907,99.7531082 24.2042148,99.7531082 L23.6883873,99.7531082 Z M29.0186051,104.514593 L25.5533022,101.102196 C26.6246363,100.811216 27.5108015,100.11022 27.5108015,98.4436999 C27.5108015,96.0761838 25.4078124,95.7455251 23.8338771,95.7455251 L22.154131,95.7455251 L22.154131,104.514593 L23.6883873,104.514593 L23.6883873,101.247685 L23.8471034,101.247685 L26.9023896,104.514593 L29.0186051,104.514593 L29.0186051,104.514593 Z M18.6623755,104.514593 L18.6623755,97.2401023 L21.0695706,97.2401023 L21.0695706,95.7587514 L14.7209241,95.7587514 L14.7209241,97.2401023 L17.1281192,97.2401023 L17.1281192,104.514593 L18.6623755,104.514593 L18.6623755,104.514593 Z" id="Shape" fill="#FFFFFF"></path>
        </g>
    </g>
</svg>